<svg width="120" height="120" viewBox="0 0 120 120" fill="none" xmlns="http://www.w3.org/2000/svg">
<path d="M28.9376 81.172C30.1092 81.172 31.0624 82.1252 31.0624 83.2969C31.0624 84.2677 31.8495 85.0547 32.8202 85.0547C33.791 85.0547 34.5781 84.2677 34.5781 83.2969C34.5781 80.8005 32.9473 78.6787 30.6954 77.9384V77.4727C30.6954 76.5019 29.9084 75.7148 28.9376 75.7148C27.9668 75.7148 27.1798 76.5019 27.1798 77.4727V77.9384C24.9279 78.679 23.2969 80.8005 23.2969 83.2969C23.2969 86.4073 25.8272 88.9376 28.9376 88.9376C30.1092 88.9376 31.0624 89.8908 31.0624 91.0624C31.0624 92.2343 30.1092 93.1875 28.9376 93.1875C27.7659 93.1875 26.8125 92.2343 26.8125 91.0624C26.8125 90.0916 26.0255 89.3046 25.0547 89.3046C24.0839 89.3046 23.2969 90.0916 23.2969 91.0624C23.2969 93.559 24.9279 95.6805 27.1798 96.4212V96.8866C27.1798 97.8574 27.9668 98.6444 28.9376 98.6444C29.9084 98.6444 30.6954 97.8574 30.6954 96.8866V96.4212C32.9473 95.6805 34.5781 93.559 34.5781 91.0624C34.5781 87.9523 32.0477 85.422 28.9376 85.422C27.7659 85.422 26.8125 84.4687 26.8125 83.2969C26.8125 82.1252 27.7657 81.172 28.9376 81.172Z" fill="#E81D25"/>
<path d="M43.7166 78.2039C43.2122 77.3749 42.1306 77.1115 41.3011 77.6161C40.4717 78.1207 40.2087 79.2021 40.7133 80.0315C42.0202 82.1791 42.7109 84.6509 42.7109 87.1798C42.7109 94.7744 36.5321 100.953 28.9374 100.953C21.3427 100.953 15.1641 94.7744 15.1641 87.1798C15.1641 79.5851 21.3429 73.4062 28.9376 73.4062C31.5218 73.4062 34.0399 74.1255 36.2196 75.4861C37.0432 76.0003 38.1274 75.7495 38.6414 74.9259C39.1556 74.1023 38.9049 73.0181 38.0813 72.5039C35.3426 70.7941 32.1806 69.8904 28.9374 69.8904C19.4042 69.8904 11.6482 77.6463 11.6482 87.1795C11.6482 96.7127 19.4042 104.469 28.9374 104.469C38.4706 104.469 46.2265 96.7127 46.2265 87.1795C46.2265 84.0061 45.3586 80.9023 43.7166 78.2039Z" fill="#E81D25"/>
<path d="M110.476 11.6484H104.469V5.6407C104.469 2.53031 101.938 0 98.828 0H25.0547C21.9443 0 19.4138 2.53031 19.4138 5.6407V25.4217C19.4138 26.3925 20.2008 27.1795 21.1716 27.1795C22.1424 27.1795 22.9294 26.3925 22.9294 25.4217V5.6407C22.9294 4.46883 23.8828 3.51562 25.0547 3.51562H98.828C99.9998 3.51562 100.953 4.46883 100.953 5.6407V102.711C100.953 103.882 99.9998 104.836 98.828 104.836H46.6959C51.2027 100.303 53.992 94.061 53.992 87.1795C53.992 83.6585 53.2606 80.3058 51.9438 77.2629C52.0385 77.2786 52.1351 77.2889 52.2342 77.2889H67.7653C68.7363 77.2889 69.5231 76.5019 69.5231 75.5311C69.5231 74.5603 68.7363 73.7733 67.7653 73.7733H52.2342C51.5536 73.7733 50.9646 74.1609 50.6726 74.7267C46.3449 67.2023 38.2231 62.1251 28.9376 62.1251C26.8671 62.1251 24.8552 62.3794 22.9296 62.8549V32.4532C22.9296 31.4824 22.1426 30.6954 21.1718 30.6954C20.201 30.6954 19.414 31.4824 19.414 32.4532V64.0073C10.3088 67.7634 3.8829 76.7346 3.8829 87.1798C3.8829 100.995 15.1224 112.234 28.9376 112.234C29.6534 112.234 30.3617 112.203 31.0624 112.144V114.359C31.0624 117.47 33.5927 120 36.7031 120H110.476C113.587 120 116.117 117.47 116.117 114.359V17.2891C116.117 14.1788 113.587 11.6484 110.476 11.6484ZM28.9376 108.719C17.0609 108.719 7.39853 99.0565 7.39853 87.1798C7.39853 75.303 17.0609 65.6407 28.9376 65.6407C40.8143 65.6407 50.4767 75.303 50.4767 87.1798C50.4767 99.0565 40.8141 108.719 28.9376 108.719ZM112.601 114.359C112.601 115.531 111.648 116.484 110.476 116.484H36.7031C35.5313 116.484 34.5781 115.531 34.5781 114.359V111.594C37.3643 110.951 39.9734 109.84 42.3202 108.352H98.828C101.938 108.352 104.469 105.821 104.469 102.711V15.1641H110.476C111.648 15.1641 112.601 16.1173 112.601 17.2891V114.359Z" fill="#E81D25"/>
<path d="M69.7734 7.7655H50.2266C48.2234 7.7655 46.5938 9.39511 46.5938 11.3983V15.4139C46.5938 17.4171 48.2234 19.0467 50.2266 19.0467H69.7734C71.7766 19.0467 73.4062 17.4171 73.4062 15.4139V11.3983C73.4062 9.39511 71.7766 7.7655 69.7734 7.7655ZM69.8906 15.4141C69.8906 15.4788 69.8379 15.5313 69.7734 15.5313H50.2266C50.1619 15.5313 50.1094 15.4788 50.1094 15.4141V11.3983C50.1094 11.3336 50.1619 11.2811 50.2266 11.2811H69.7734C69.8379 11.2811 69.8906 11.3336 69.8906 11.3983V15.4141Z" fill="#E81D25"/>
<path d="M85.3048 85.4219H69.6406C67.6374 85.4219 66.0078 87.0515 66.0078 89.0547V93.0702C66.0078 95.0734 67.6374 96.703 69.6406 96.703H85.3048C87.308 96.703 88.9376 95.0734 88.9376 93.0702V89.0547C88.9376 87.0515 87.3077 85.4219 85.3048 85.4219ZM85.422 93.0702C85.422 93.1349 85.3692 93.1874 85.3048 93.1874H69.6406C69.5761 93.1874 69.5234 93.1349 69.5234 93.0702V89.0547C69.5234 88.99 69.5761 88.9375 69.6406 88.9375H85.3048C85.3692 88.9375 85.422 88.99 85.422 89.0547V93.0702Z" fill="#E81D25"/>
<path d="M87.1798 27.1797H52.2345C51.2637 27.1797 50.4767 27.9667 50.4767 28.9375C50.4767 29.9083 51.2637 30.6953 52.2345 30.6953H87.1798C88.1508 30.6953 88.9376 29.9083 88.9376 28.9375C88.9376 27.9667 88.1506 27.1797 87.1798 27.1797Z" fill="#E81D25"/>
<path d="M38.5781 38.4609H42.5937C44.5969 38.4609 46.2265 36.8313 46.2265 34.8281V30.8125C46.2265 28.8093 44.5969 27.1797 42.5937 27.1797H38.5781C36.5749 27.1797 34.9453 28.8093 34.9453 30.8125V34.8281C34.9453 36.8313 36.5749 38.4609 38.5781 38.4609ZM38.4609 30.8125C38.4609 30.7478 38.5134 30.6953 38.5781 30.6953H42.5937C42.6584 30.6953 42.7109 30.7478 42.7109 30.8125V34.8281C42.7109 34.8927 42.6584 34.9452 42.5937 34.9452H38.5781C38.5134 34.9452 38.4609 34.8927 38.4609 34.8281V30.8125Z" fill="#E81D25"/>
<path d="M52.2342 38.4608H67.7653C68.7363 38.4608 69.5231 37.6738 69.5231 36.703C69.5231 35.7322 68.7363 34.9452 67.7653 34.9452H52.2342C51.2634 34.9452 50.4764 35.7322 50.4764 36.703C50.4764 37.6738 51.2634 38.4608 52.2342 38.4608Z" fill="#E81D25"/>
<path d="M87.1798 46.5938H52.2345C51.2637 46.5938 50.4767 47.3808 50.4767 48.3516C50.4767 49.3223 51.2637 50.1094 52.2345 50.1094H87.1798C88.1508 50.1094 88.9376 49.3223 88.9376 48.3516C88.9376 47.3808 88.1506 46.5938 87.1798 46.5938Z" fill="#E81D25"/>
<path d="M34.9453 54.2421C34.9453 56.2453 36.5749 57.8749 38.5781 57.8749H42.5937C44.5969 57.8749 46.2265 56.2453 46.2265 54.2421V50.2266C46.2265 48.2234 44.5969 46.5938 42.5937 46.5938H38.5781C36.5749 46.5938 34.9453 48.2234 34.9453 50.2266V54.2421ZM38.4609 50.2266C38.4609 50.1619 38.5134 50.1094 38.5781 50.1094H42.5937C42.6584 50.1094 42.7109 50.1619 42.7109 50.2266V54.2421C42.7109 54.3068 42.6584 54.3593 42.5937 54.3593H38.5781C38.5134 54.3593 38.4609 54.3068 38.4609 54.2421V50.2266Z" fill="#E81D25"/>
<path d="M52.2342 57.8748H67.7653C68.7363 57.8748 69.5231 57.0877 69.5231 56.1169C69.5231 55.1462 68.7363 54.3591 67.7653 54.3591H52.2342C51.2634 54.3591 50.4764 55.1462 50.4764 56.1169C50.4764 57.0877 51.2634 57.8748 52.2342 57.8748Z" fill="#E81D25"/>
<path d="M87.1798 66.0077H52.2345C51.2637 66.0077 50.4767 66.7947 50.4767 67.7655C50.4767 68.7363 51.2637 69.5233 52.2345 69.5233H87.1798C88.1508 69.5233 88.9376 68.7363 88.9376 67.7655C88.9376 66.7947 88.1506 66.0077 87.1798 66.0077Z" fill="#E81D25"/>
</svg>
