<svg width="120" height="120" viewBox="0 0 120 120" fill="none" xmlns="http://www.w3.org/2000/svg">
<path d="M88.125 51.7238V46.875H110.625C114.761 46.875 118.125 43.5112 118.125 39.375C118.125 35.2388 114.761 31.875 110.625 31.875H88.125V15C88.125 11.8988 85.6012 9.375 82.5 9.375H73.125V7.5C73.125 4.39875 70.6012 1.875 67.5 1.875H63.75C60.6488 1.875 58.125 4.39875 58.125 7.5V9.375H31.875V7.5C31.875 4.39875 29.3512 1.875 26.25 1.875H22.5C19.3988 1.875 16.875 4.39875 16.875 7.5V9.375H7.5C4.39875 9.375 1.875 11.8988 1.875 15V75C1.875 78.1012 4.39875 80.625 7.5 80.625H36.7238L41.25 85.1513L43.4381 82.9631C44.0644 86.3175 45.6488 89.4056 48.0469 91.9181C47.2988 92.9231 46.875 94.1231 46.875 95.3981C46.875 98.5556 49.3913 101.119 52.5206 101.229C52.6294 104.289 55.0856 106.746 58.1456 106.854C58.2544 109.914 60.7106 112.371 63.7706 112.479C63.8813 115.609 66.4462 118.125 69.6019 118.125C71.1656 118.125 72.6356 117.516 73.74 116.411L74.0625 116.089L74.385 116.411C75.4894 117.516 76.9594 118.125 78.5231 118.125C81.6806 118.125 84.2437 115.609 84.3544 112.479C87.4144 112.371 89.8706 109.914 89.9794 106.854C93.0394 106.746 95.4956 104.289 95.6044 101.229C98.7337 101.119 101.25 98.5538 101.25 95.3981C101.25 93.8344 100.641 92.3644 99.5362 91.26L99.1462 90.87C101.023 88.5675 102.27 85.8619 102.812 82.9631L105 85.1513L117.026 73.125L91.875 47.9738L88.125 51.7238ZM46.875 46.875H35.625V35.625H46.875V46.875ZM56.25 42.2306L51.1875 40.2056C50.8462 40.0688 50.625 39.7425 50.625 39.375C50.625 39.0075 50.8462 38.6812 51.1875 38.5444L56.25 36.5194V42.2306ZM60 35.625H95.625V43.125H60V35.625ZM99.375 35.625H103.125V43.125H99.375V35.625ZM114.375 39.375C114.375 41.4431 112.693 43.125 110.625 43.125H106.875V35.625H110.625C112.693 35.625 114.375 37.3069 114.375 39.375ZM61.875 7.5C61.875 6.46688 62.7169 5.625 63.75 5.625H67.5C68.5331 5.625 69.375 6.46688 69.375 7.5V15C69.375 16.0331 68.5331 16.875 67.5 16.875H63.75C62.7169 16.875 61.875 16.0331 61.875 15V7.5ZM20.625 7.5C20.625 6.46688 21.4669 5.625 22.5 5.625H26.25C27.2831 5.625 28.125 6.46688 28.125 7.5V15C28.125 16.0331 27.2831 16.875 26.25 16.875H22.5C21.4669 16.875 20.625 16.0331 20.625 15V7.5ZM7.5 13.125H16.875V15C16.875 18.1012 19.3988 20.625 22.5 20.625H26.25C29.3512 20.625 31.875 18.1012 31.875 15V13.125H58.125V15C58.125 18.1012 60.6488 20.625 63.75 20.625H67.5C70.6012 20.625 73.125 18.1012 73.125 15V13.125H82.5C83.5331 13.125 84.375 13.9669 84.375 15V24.375H5.625V15C5.625 13.9669 6.46688 13.125 7.5 13.125ZM7.5 76.875C6.46688 76.875 5.625 76.0331 5.625 75V28.125H84.375V31.875H57.765L50.625 34.7306V31.875H31.875V50.625H50.625V44.0194L57.765 46.875H84.375V55.4738L79.8487 60L82.0369 62.1881C78.7012 62.8125 75.63 64.3838 73.1231 66.7594C70.62 64.3913 67.5188 62.8256 64.2019 62.1994L66.4013 60L54.375 47.9738L29.2238 73.125L32.9738 76.875H7.5ZM34.5262 73.125L54.375 53.2762L61.0987 60L41.25 79.8487L34.5262 73.125ZM50.625 95.3981C50.625 94.8356 50.8444 94.3087 51.24 93.9112L52.6613 92.49C53.0588 92.0944 53.5856 91.875 54.1481 91.875C55.3069 91.875 56.25 92.8181 56.25 93.9769C56.25 94.5394 56.0306 95.0663 55.635 95.4638L54.2137 96.885C53.8162 97.2806 53.2894 97.5 52.7269 97.5C51.5681 97.5 50.625 96.5569 50.625 95.3981ZM56.25 101.023C56.25 100.461 56.4694 99.9337 56.865 99.5362L58.2863 98.115C58.6838 97.7194 59.2106 97.5 59.7731 97.5C60.9319 97.5 61.875 98.4431 61.875 99.6019C61.875 100.164 61.6556 100.691 61.26 101.089L59.8387 102.51C59.4412 102.906 58.9144 103.125 58.3519 103.125C57.1931 103.125 56.25 102.182 56.25 101.023ZM61.875 106.648C61.875 106.086 62.0944 105.559 62.49 105.161L63.9112 103.74C64.3087 103.344 64.8356 103.125 65.3981 103.125C66.5569 103.125 67.5 104.068 67.5 105.227C67.5 105.789 67.2806 106.316 66.885 106.714L65.4638 108.135C65.0663 108.531 64.5394 108.75 63.9769 108.75C62.8181 108.75 61.875 107.807 61.875 106.648ZM71.0888 113.76C70.6913 114.156 70.1644 114.375 69.6019 114.375C68.4431 114.375 67.5 113.432 67.5 112.273C67.5 111.711 67.7194 111.184 68.115 110.786L69.5362 109.365C69.9337 108.969 70.4606 108.75 71.0231 108.75C72.1819 108.75 73.125 109.693 73.125 110.852C73.125 111.414 72.9056 111.941 72.51 112.339L71.0888 113.76ZM95.3981 97.5C94.8356 97.5 94.3087 97.2806 93.9112 96.885L89.4506 92.4244L86.7994 95.0756L91.26 99.5362C91.6556 99.9337 91.875 100.461 91.875 101.023C91.875 102.182 90.9319 103.125 89.7731 103.125C89.2106 103.125 88.6837 102.906 88.2862 102.51L83.8256 98.0494L81.1744 100.701L85.635 105.161C86.0306 105.559 86.25 106.086 86.25 106.648C86.25 107.807 85.3069 108.75 84.1481 108.75C83.5856 108.75 83.0587 108.531 82.6612 108.135L78.2006 103.674L75.5494 106.326L80.01 110.786C80.4056 111.184 80.625 111.711 80.625 112.273C80.625 113.432 79.6819 114.375 78.5231 114.375C77.9606 114.375 77.4337 114.156 77.0362 113.76L76.41 113.134C76.7119 112.421 76.875 111.651 76.875 110.852C76.875 107.694 74.3587 105.131 71.2294 105.021C71.1206 101.961 68.6644 99.5044 65.6044 99.3956C65.4956 96.3356 63.0394 93.8794 59.9794 93.7706C59.8688 90.6413 57.3037 88.125 54.1481 88.125C52.8862 88.125 51.6975 88.5375 50.7019 89.2706C48.2381 86.6569 46.875 83.2669 46.875 79.6594C46.875 79.6125 46.8787 79.5675 46.8787 79.5225L60.7556 65.6456C64.3256 65.6138 67.8075 66.9356 70.455 69.3937L61.3256 78.5231C60.4706 79.3781 60 80.5144 60 81.7237C60 84.2194 62.0306 86.25 64.5263 86.25H71.5706C73.0725 86.25 74.4863 85.665 75.5494 84.6019L77.6513 82.5H79.0706C80.9438 82.5 82.7588 82.1419 84.45 81.4762L96.885 93.9112C97.2806 94.3087 97.5 94.8356 97.5 95.3981C97.5 96.5569 96.5569 97.5 95.3981 97.5ZM99.375 79.6594C99.375 82.7887 98.3456 85.7531 96.4688 88.1906L87.8475 79.5694C88.4062 79.1494 88.9481 78.7031 89.4525 78.2006L86.8012 75.5494C84.735 77.6137 81.9919 78.75 79.0706 78.75H76.0987L72.8981 81.9506C72.5438 82.305 72.0713 82.5 71.5706 82.5H64.5263C64.0988 82.5 63.75 82.1512 63.75 81.7237C63.75 81.5194 63.8325 81.3187 63.9769 81.1744L75.4163 69.735C78.1031 67.05 81.765 65.6175 85.4962 65.6456L99.3713 79.5206C99.3713 79.5694 99.375 79.6144 99.375 79.6594ZM105 79.8487L85.1513 60L91.875 53.2762L111.724 73.125L105 79.8487Z" fill="#E81D25"/>
<path d="M9.375 50.625H28.125V31.875H9.375V50.625ZM13.125 35.625H24.375V46.875H13.125V35.625Z" fill="#E81D25"/>
<path d="M9.375 73.125H28.125V54.375H9.375V73.125ZM13.125 58.125H24.375V69.375H13.125V58.125Z" fill="#E81D25"/>
</svg>
