<svg width="120" height="120" viewBox="0 0 120 120" fill="none" xmlns="http://www.w3.org/2000/svg">
<g clip-path="url(#clip0)">
<path d="M110.245 71.9004L84.79 46.4443C83.9961 45.6934 82.7549 45.6934 81.9619 46.4443L70.6475 57.7578C69.8672 58.5391 69.8672 59.8047 70.6475 60.5859L72.0615 62L68.2412 65.8203L65.1777 66.4297L59.334 60.5859C58.959 60.2109 58.4502 60 57.9199 60H50.2637L46.6055 56.3438C47.3867 55.5635 47.3867 54.2969 46.6055 53.5156L35.2939 42.2002C34.918 41.8242 34.4092 41.6133 33.8789 41.6133C33.3477 41.6133 32.8389 41.8242 32.4639 42.2002L9.83594 64.8281C9.05469 65.6094 9.05469 66.875 9.83594 67.6562L21.1494 78.9697C21.9307 79.751 23.1963 79.751 23.9775 78.9697L36.9639 91.9561C36.0908 93.7588 36.1836 95.8789 37.209 97.5986C38.2334 99.3184 40.0547 100.408 42.0557 100.498C42.1836 103.57 44.6475 106.029 47.7197 106.152C47.8506 109.216 50.3047 111.669 53.3672 111.8C53.4932 114.157 54.9922 116.22 57.1953 117.068C59.3975 117.916 61.8936 117.392 63.5674 115.728L65.6934 117.854C67.3623 119.544 69.8731 120.086 72.0908 119.235C74.3076 118.384 75.8106 116.301 75.9199 113.928C78.9883 113.802 81.4463 111.343 81.5713 108.274C84.6416 108.145 87.1016 105.686 87.2315 102.616C89.5957 102.503 91.6699 101.005 92.5205 98.7969C93.3711 96.5879 92.8379 94.0859 91.1611 92.416L89.0459 90.2998L94.6973 84.6357L96.1113 86.0518C96.8926 86.833 98.1582 86.833 98.9395 86.0518L110.254 74.7383C111.034 73.957 111.034 72.6914 110.254 71.9102L110.245 71.9004ZM72.7695 79.6777C73.5508 80.459 73.5508 81.7246 72.7695 82.5059C71.9795 83.2646 70.7315 83.2646 69.9414 82.5059L61.4561 74.0225C60.6748 73.2412 59.4082 73.2412 58.6279 74.0225C56.2842 76.3672 52.4834 76.3672 50.1397 74.0225L47.3193 76.8496C48.0459 77.5625 48.877 78.1602 49.7832 78.6221L39.542 88.8701L32.4639 81.7998L50.2637 64H57.0918L72.7695 79.6777ZM22.5693 74.7275L14.0771 66.2422L33.8779 46.4424L42.3633 54.9277L22.5693 74.7275ZM43.7832 59.1719L46.6074 62L29.6338 78.9697L26.8057 76.1416L43.7832 59.1719ZM59.3193 113.48C58.7949 113.482 58.291 113.276 57.9199 112.906C57.1514 112.135 57.1416 110.89 57.8975 110.106L57.9199 110.084L62.0293 105.974L63.5713 104.436L60.7481 101.6L59.2012 103.146L55.0752 107.256L55.0576 107.278C54.2607 107.988 53.0479 107.948 52.2998 107.187C51.5518 106.426 51.5332 105.212 52.2578 104.428L57.9199 98.7695L55.0918 95.9424L49.4356 101.6C48.6543 102.382 47.3877 102.382 46.6064 101.601C45.8252 100.82 45.8242 99.5537 46.6055 98.7725L52.2637 93.1162L49.4356 90.2881L43.7754 95.9443C42.9854 96.7002 41.7402 96.7002 40.9492 95.9443C40.1689 95.1631 40.1689 93.8975 40.9492 93.1162L54.3193 79.7402C56.3018 79.7695 58.2481 79.2061 59.9072 78.1221L67.1191 85.334C69.4941 87.6006 73.2305 87.6006 75.6055 85.334C77.9482 82.9912 77.9482 79.1934 75.6055 76.8496L68.5859 69.8301L86.2178 87.46L85.6172 88.0596C83.875 87.5771 82.0078 87.916 80.5459 88.9785C79.083 90.042 78.1856 91.7139 78.1074 93.5195C75.0186 93.6504 72.5518 96.1396 72.4492 99.2305C69.3799 99.3066 66.9024 101.762 66.7979 104.83C64.9941 104.907 63.3242 105.802 62.2598 107.26C61.1963 108.718 60.8545 110.581 61.332 112.322L60.7315 112.922C60.3535 113.288 59.8457 113.489 59.3193 113.48ZM71.3555 115.034C70.5654 115.791 69.3184 115.791 68.5274 115.034L65.6973 112.2C64.9981 111.408 65.0352 110.209 65.7813 109.462C66.5283 108.715 67.7275 108.677 68.5195 109.376L71.3555 112.2C71.7324 112.573 71.9434 113.082 71.9414 113.612C71.9434 114.146 71.7324 114.657 71.3555 115.034ZM77.0117 109.376C76.2305 110.157 74.9649 110.157 74.1836 109.376L71.3555 106.548C70.9805 106.173 70.7686 105.664 70.7686 105.133C70.7686 104.603 70.9805 104.093 71.3555 103.718C71.7285 103.341 72.2373 103.13 72.7676 103.132C73.2979 103.132 73.8066 103.343 74.1816 103.718L77.0098 106.546C77.3857 106.921 77.5967 107.43 77.5967 107.961C77.5977 108.491 77.3867 109.001 77.0117 109.376ZM82.666 103.718C81.875 104.474 80.6299 104.474 79.8399 103.718L77.0117 100.89C76.2539 100.105 76.2647 98.8574 77.0361 98.0859C77.8076 97.3145 79.0547 97.3037 79.8399 98.0615L82.668 100.89C83.043 101.265 83.2539 101.773 83.2539 102.304C83.2559 102.835 83.044 103.345 82.666 103.718ZM88.3252 98.0615C87.9502 98.4375 87.4414 98.6484 86.9102 98.6484C86.3799 98.6484 85.8711 98.4375 85.4951 98.0615L82.668 95.2344C81.8848 94.4521 81.8838 93.1846 82.666 92.4023C83.4473 91.6191 84.7149 91.6182 85.4981 92.4004L88.3193 95.2344C89.1006 96.0146 89.1006 97.2812 88.3193 98.0615H88.3252ZM89.0332 84.626L72.0635 67.6562L74.8897 64.8281L91.8613 81.7998L89.0332 84.626ZM97.5195 81.7998L74.8897 59.1719L83.376 50.6855L106.004 73.3145L97.5195 81.7998Z" fill="#E81D25"/>
<path d="M21.9199 114V82H17.9199V114C17.9199 117.313 20.6055 120 23.9199 120H49.9199V116H23.9199C22.8154 116 21.9199 115.104 21.9199 114Z" fill="#E81D25"/>
<path d="M97.9199 114C97.9199 115.104 97.0244 116 95.9199 116H79.9199V120H95.9199C99.2334 120 101.92 117.313 101.92 114V90H97.9199V114Z" fill="#E81D25"/>
<path d="M21.9199 6C21.9199 4.89551 22.8154 4 23.9199 4H79.9199V18C79.9199 21.3135 82.6055 24 85.9199 24H97.9199V56H101.92V22.0596C101.92 21.5664 101.737 21.0908 101.407 20.7236L83.4072 0.664063C83.0283 0.241211 82.4873 0 81.9199 0H23.9199C20.6055 0 17.9199 2.68652 17.9199 6V48H21.9199V6ZM83.9199 18V7.23047L95.3838 20H85.9199C84.8154 20 83.9199 19.1045 83.9199 18Z" fill="#E81D25"/>
<path d="M29.9199 12H33.9199V16H29.9199V12Z" fill="#E81D25"/>
<path d="M37.9199 12H53.9199V16H37.9199V12Z" fill="#E81D25"/>
<path d="M29.9199 20H53.9199V24H29.9199V20Z" fill="#E81D25"/>
<path d="M29.9199 32H37.9199V36H29.9199V32Z" fill="#E81D25"/>
<path d="M41.9199 32H89.9199V36H41.9199V32Z" fill="#E81D25"/>
<path d="M45.9199 44H75.9199V48H45.9199V44Z" fill="#E81D25"/>
</g>
<defs>
<clipPath id="clip0">
<rect width="120" height="120" fill="white"/>
</clipPath>
</defs>
</svg>
