<svg width="240" height="240" viewBox="0 0 240 240" fill="none" xmlns="http://www.w3.org/2000/svg">
<path d="M101 110.625H89.75C88.715 110.625 87.875 111.465 87.875 112.5V123.75C87.875 124.785 88.715 125.625 89.75 125.625H101C102.035 125.625 102.875 124.785 102.875 123.75V116.042L109.721 110.175L107.279 107.327L102.496 111.428C102.155 110.953 101.628 110.625 101 110.625ZM99.125 121.875H95.375H91.625V114.375H99.0575L95.9787 117.013L95.1781 115.412L91.8238 117.09L93.6988 120.84C93.9575 121.356 94.4394 121.725 95.0056 121.839C95.1275 121.864 95.2512 121.875 95.375 121.875C95.8175 121.875 96.2525 121.718 96.5956 121.423L99.125 119.256V121.875Z" fill="#333333"/>
<path d="M102.496 128.303C102.155 127.828 101.628 127.5 101 127.5H89.75C88.715 127.5 87.875 128.34 87.875 129.375V140.625C87.875 141.66 88.715 142.5 89.75 142.5H101C102.035 142.5 102.875 141.66 102.875 140.625V132.917L109.721 127.05L107.279 124.202L102.496 128.303ZM99.125 138.75H95.375H91.625V131.25H99.0575L95.9787 133.888L95.1781 132.287L91.8238 133.965L93.6988 137.715C93.9575 138.231 94.4394 138.6 95.0056 138.714C95.1275 138.739 95.2512 138.75 95.375 138.75C95.8175 138.75 96.2525 138.593 96.5956 138.298L99.125 136.131V138.75Z" fill="#333333"/>
<path d="M107.279 141.077L102.496 145.178C102.155 144.703 101.628 144.375 101 144.375H89.75C88.715 144.375 87.875 145.215 87.875 146.25V157.5C87.875 158.535 88.715 159.375 89.75 159.375H101C102.035 159.375 102.875 158.535 102.875 157.5V149.792L109.721 143.925L107.279 141.077ZM99.125 155.625H95.375H91.625V148.125H99.0575L95.9787 150.763L95.1781 149.162L91.8238 150.84L93.6988 154.59C93.9575 155.106 94.4394 155.475 95.0056 155.589C95.1275 155.614 95.2512 155.625 95.375 155.625C95.8175 155.625 96.2525 155.468 96.5956 155.173L99.125 153.006V155.625Z" fill="#333333"/>
<path d="M149.75 123.75C149.75 130.987 155.638 136.875 162.875 136.875C170.112 136.875 176 130.987 176 123.75C176 116.513 170.112 110.625 162.875 110.625C155.638 110.625 149.75 116.513 149.75 123.75ZM162.875 114.375C168.044 114.375 172.25 118.581 172.25 123.75C172.25 128.919 168.044 133.125 162.875 133.125C157.706 133.125 153.5 128.919 153.5 123.75C153.5 118.581 157.706 114.375 162.875 114.375Z" fill="#333333"/>
<path d="M166.625 123.75H170.375C170.375 119.614 167.011 116.25 162.875 116.25V120C164.943 120 166.625 121.682 166.625 123.75Z" fill="#333333"/>
<path d="M188.898 156.606L178.342 137.145C178.798 136.348 179.069 135.463 179.096 134.548C180.376 133.969 181.406 132.924 181.959 131.576C182.497 130.262 182.506 128.822 182.03 127.526C182.962 126.508 183.5 125.169 183.5 123.75C183.5 122.293 182.945 120.936 181.979 119.914C182.474 118.599 182.463 117.133 181.901 115.791C181.353 114.48 180.341 113.454 179.088 112.875C179.028 111.497 178.464 110.169 177.459 109.164C176.429 108.135 175.076 107.569 173.671 107.529C173.092 106.249 172.046 105.219 170.699 104.666C169.385 104.128 167.945 104.119 166.649 104.595C164.617 102.731 161.156 102.748 159.125 104.578V78.75C159.125 75.6488 156.601 73.125 153.5 73.125H138.5C133.835 73.125 129.335 70.8638 126.466 67.0781C123.959 63.7706 120.144 61.875 116 61.875C111.856 61.875 108.041 63.7706 105.534 67.0781C102.665 70.8638 98.165 73.125 93.5 73.125H78.5C75.3988 73.125 72.875 75.6488 72.875 78.75V172.5C72.875 175.601 75.3988 178.125 78.5 178.125H153.5C156.601 178.125 159.125 175.601 159.125 172.5V165.232L162.875 150.232L166.681 165.456C166.873 166.217 167.516 166.779 168.296 166.864C168.365 166.871 168.433 166.875 168.5 166.875C169.203 166.875 169.856 166.479 170.176 165.838L175.106 155.979L186.734 159.302C187.46 159.508 188.24 159.262 188.713 158.672C189.185 158.085 189.258 157.269 188.898 156.606ZM161.206 107.925C161.842 106.65 163.846 106.62 164.519 107.884C164.784 108.382 165.26 108.735 165.813 108.844C166.364 108.954 166.94 108.806 167.375 108.446C167.917 107.994 168.646 107.874 169.278 108.137C169.933 108.405 170.371 109.018 170.422 109.74C170.465 110.318 170.773 110.843 171.253 111.163C171.733 111.484 172.334 111.562 172.886 111.381C173.568 111.152 174.307 111.319 174.808 111.818C175.291 112.301 175.464 113.019 175.256 113.693C175.091 114.232 175.177 114.817 175.49 115.288C175.805 115.757 176.313 116.059 176.876 116.109C177.577 116.175 178.177 116.606 178.439 117.236C178.711 117.889 178.588 118.633 178.115 119.179C177.736 119.618 177.583 120.204 177.697 120.772C177.811 121.341 178.181 121.824 178.698 122.081C179.349 122.406 179.75 123.045 179.75 123.75C179.75 124.434 179.364 125.064 178.741 125.394C178.243 125.659 177.89 126.135 177.781 126.688C177.671 127.241 177.819 127.815 178.179 128.25C178.629 128.792 178.747 129.521 178.488 130.153C178.22 130.808 177.607 131.246 176.885 131.297C176.308 131.34 175.783 131.647 175.462 132.127C175.141 132.609 175.061 133.213 175.244 133.762C175.473 134.449 175.306 135.184 174.808 135.682C174.324 136.168 173.606 136.341 172.933 136.132C172.393 135.969 171.809 136.054 171.337 136.367C170.868 136.682 170.566 137.19 170.516 137.752C170.45 138.454 170.019 139.052 169.389 139.316C168.738 139.59 167.992 139.466 167.446 138.992C167.008 138.613 166.419 138.454 165.851 138.572C165.283 138.686 164.799 139.056 164.542 139.575C163.906 140.848 161.902 140.878 161.231 139.614C160.966 139.116 160.49 138.763 159.937 138.654C159.817 138.63 159.695 138.619 159.575 138.619C159.14 138.619 158.716 138.771 158.375 139.052C157.833 139.502 157.106 139.622 156.472 139.361C155.819 139.093 155.381 138.48 155.328 137.76C155.285 137.183 154.978 136.658 154.498 136.337C154.016 136.016 153.412 135.934 152.864 136.119C152.178 136.352 151.443 136.181 150.944 135.682C150.461 135.199 150.288 134.481 150.494 133.807C150.659 133.267 150.573 132.683 150.26 132.212C149.945 131.743 149.437 131.441 148.874 131.391C148.173 131.325 147.575 130.894 147.311 130.264C147.039 129.611 147.163 128.869 147.635 128.321C148.014 127.882 148.168 127.296 148.055 126.728C147.943 126.159 147.571 125.676 147.054 125.417C146.401 125.094 146 124.455 146 123.75C146 123.066 146.386 122.436 147.009 122.106C147.507 121.841 147.86 121.365 147.969 120.812C148.079 120.257 147.931 119.683 147.571 119.25C147.121 118.708 147.003 117.981 147.262 117.347C147.53 116.694 148.143 116.256 148.863 116.203C149.441 116.16 149.966 115.853 150.286 115.372C150.607 114.891 150.688 114.287 150.504 113.739C150.275 113.053 150.442 112.316 150.943 111.818C151.426 111.334 152.144 111.159 152.818 111.369C153.358 111.532 153.943 111.448 154.413 111.135C154.882 110.82 155.184 110.312 155.234 109.749C155.3 109.048 155.731 108.448 156.361 108.186C157.012 107.914 157.758 108.037 158.304 108.51C158.741 108.887 159.327 109.041 159.898 108.928C160.466 108.812 160.949 108.441 161.206 107.925ZM153.303 152.912C152.9 152.106 151.983 151.699 151.111 151.948L142.278 154.472L150.337 139.618C150.896 139.823 151.481 139.954 152.079 139.973C152.658 141.253 153.703 142.283 155.051 142.834C156.363 143.374 157.809 143.381 159.103 142.905C159.545 143.312 160.057 143.627 160.603 143.871L156.663 159.628L153.303 152.912ZM155.375 78.75V104.58C155.221 104.629 155.066 104.661 154.916 104.722C153.605 105.27 152.579 106.282 152 107.535C151.873 107.541 151.751 107.572 151.625 107.586V82.5C151.625 81.465 150.785 80.625 149.75 80.625H140.375V76.875H153.5C154.533 76.875 155.375 77.7169 155.375 78.75ZM95.375 76.7775C100.518 76.245 105.333 73.5506 108.522 69.3431C110.315 66.9806 113.039 65.625 116 65.625C118.961 65.625 121.685 66.9806 123.478 69.3431C126.667 73.5525 131.482 76.2469 136.625 76.7775V82.5C136.625 83.5331 135.783 84.375 134.75 84.375H97.25C96.2169 84.375 95.375 83.5331 95.375 82.5V76.7775ZM97.25 88.125H134.75C137.191 88.125 139.254 86.5519 140.03 84.375H147.875V109.671C147.123 110.621 146.688 111.763 146.654 112.954C145.374 113.533 144.344 114.577 143.793 115.926C143.253 117.24 143.246 118.682 143.722 119.978C142.788 120.992 142.25 122.331 142.25 123.75C142.25 125.205 142.805 126.562 143.771 127.584C143.276 128.899 143.287 130.365 143.849 131.709C144.397 133.018 145.409 134.044 146.662 134.623C146.699 135.512 146.969 136.369 147.41 137.141L136.852 156.604C136.492 157.268 136.565 158.083 137.038 158.672C137.51 159.261 138.288 159.508 139.016 159.302L147.875 156.771V166.875H84.125V84.375H91.97C92.7463 86.5519 94.8088 88.125 97.25 88.125ZM153.5 174.375H78.5C77.4669 174.375 76.625 173.533 76.625 172.5V78.75C76.625 77.7169 77.4669 76.875 78.5 76.875H91.625V80.625H82.25C81.215 80.625 80.375 81.465 80.375 82.5V168.75C80.375 169.785 81.215 170.625 82.25 170.625H149.75C150.785 170.625 151.625 169.785 151.625 168.75V157.942L155.375 165.442V172.5C155.375 173.533 154.533 174.375 153.5 174.375ZM174.641 151.948C173.769 151.693 172.85 152.106 172.449 152.912L169.091 159.628L165.153 143.876C165.723 143.621 166.256 143.286 166.711 142.854C168.029 143.349 169.494 143.34 170.836 142.776C172.145 142.228 173.173 141.216 173.75 139.963C174.322 139.939 174.879 139.806 175.413 139.612L183.474 154.472L174.641 151.948Z" fill="#333333"/>
<path d="M127.25 123.75C136.554 123.75 144.125 116.179 144.125 106.875C144.125 97.5712 136.554 90 127.25 90C117.946 90 110.375 97.5712 110.375 106.875C110.375 116.179 117.946 123.75 127.25 123.75ZM127.25 93.75C134.487 93.75 140.375 99.6375 140.375 106.875C140.375 114.112 134.487 120 127.25 120C120.012 120 114.125 114.112 114.125 106.875C114.125 99.6375 120.012 93.75 127.25 93.75Z" fill="#333333"/>
<path d="M121.625 116.25H132.875C133.91 116.25 134.75 115.41 134.75 114.375V112.5C134.75 110.25 133.734 108.251 132.159 106.875C133.734 105.499 134.75 103.5 134.75 101.25V99.375C134.75 98.34 133.91 97.5 132.875 97.5H121.625C120.59 97.5 119.75 98.34 119.75 99.375V101.25C119.75 103.5 120.766 105.499 122.341 106.875C120.766 108.251 119.75 110.25 119.75 112.5V114.375C119.75 115.41 120.59 116.25 121.625 116.25ZM123.5 101.25H131C131 103.318 129.318 105 127.25 105C125.182 105 123.5 103.318 123.5 101.25ZM131 112.5H123.5C123.5 110.432 125.182 108.75 127.25 108.75C129.318 108.75 131 110.432 131 112.5Z" fill="#333333"/>
<path d="M87.875 91.875H106.625V95.625H87.875V91.875Z" fill="#333333"/>
<path d="M87.875 99.375H99.125V103.125H87.875V99.375Z" fill="#333333"/>
<path d="M102.875 99.375H106.625V103.125H102.875V99.375Z" fill="#333333"/>
<path d="M116 127.5H138.5V131.25H116V127.5Z" fill="#333333"/>
<path d="M123.5 135H138.5V138.75H123.5V135Z" fill="#333333"/>
<path d="M116 135H119.75V138.75H116V135Z" fill="#333333"/>
<path d="M116 142.5H131V146.25H116V142.5Z" fill="#333333"/>
<path d="M134.75 142.5H138.5V146.25H134.75V142.5Z" fill="#333333"/>
<path d="M119.75 75H123.5C123.5 70.8637 120.136 67.5 116 67.5V71.25C118.068 71.25 119.75 72.9319 119.75 75Z" fill="#333333"/>
<path d="M172.385 145.2L175.738 143.524L177.612 147.272L174.26 148.948L172.385 145.2Z" fill="#333333"/>
<circle cx="120" cy="120" r="118" stroke="#E81D25" stroke-width="4"/>
</svg>
