<svg width="120" height="120" viewBox="0 0 120 120" fill="none" xmlns="http://www.w3.org/2000/svg">
<path d="M114.375 56.25H103.125V16.875C103.125 16.3777 102.927 15.9008 102.576 15.5491C102.224 15.1975 101.747 15 101.25 15H76.875V11.25C76.875 10.7527 76.6775 10.2758 76.3258 9.92414C75.9742 9.57251 75.4973 9.37497 75 9.37497H68.5687C67.8444 7.70413 66.6473 6.28153 65.1249 5.28222C63.6025 4.2829 61.8211 3.75049 60 3.75049C58.1789 3.75049 56.3975 4.2829 54.8751 5.28222C53.3527 6.28153 52.1556 7.70413 51.4313 9.37497H45C44.5027 9.37497 44.0258 9.57251 43.6742 9.92414C43.3225 10.2758 43.125 10.7527 43.125 11.25V15H18.75C18.2527 15 17.7758 15.1975 17.4242 15.5491C17.0725 15.9008 16.875 16.3777 16.875 16.875V110.625C16.875 111.122 17.0725 111.599 17.4242 111.951C17.7758 112.302 18.2527 112.5 18.75 112.5H56.25V114.375C56.25 114.872 56.4475 115.349 56.7992 115.701C57.1508 116.052 57.6277 116.25 58.125 116.25H114.375C114.872 116.25 115.349 116.052 115.701 115.701C116.052 115.349 116.25 114.872 116.25 114.375V58.125C116.25 57.6277 116.052 57.1508 115.701 56.7991C115.349 56.4475 114.872 56.25 114.375 56.25ZM46.875 13.125H52.7625C53.1787 13.1257 53.5834 12.9879 53.9127 12.7333C54.242 12.4787 54.4772 12.1217 54.5813 11.7187C54.8862 10.5128 55.5848 9.44308 56.5663 8.67892C57.5478 7.91477 58.7561 7.49984 60 7.49984C61.2439 7.49984 62.4522 7.91477 63.4337 8.67892C64.4152 9.44308 65.1138 10.5128 65.4187 11.7187C65.5228 12.1217 65.758 12.4787 66.0873 12.7333C66.4166 12.9879 66.8213 13.1257 67.2375 13.125H73.125V26.25H46.875V13.125ZM56.25 58.125V108.75H20.625V18.75H43.125V28.125C43.125 28.6222 43.3225 29.0992 43.6742 29.4508C44.0258 29.8024 44.5027 30 45 30H75C75.4973 30 75.9742 29.8024 76.3258 29.4508C76.6775 29.0992 76.875 28.6222 76.875 28.125V18.75H99.375V56.25H58.125C57.6277 56.25 57.1508 56.4475 56.7992 56.7991C56.4475 57.1508 56.25 57.6277 56.25 58.125ZM90 60V75.2437L87.2812 73.4437C86.9774 73.2361 86.618 73.1251 86.25 73.1251C85.882 73.1251 85.5226 73.2361 85.2188 73.4437L82.5 75.2437V60H90ZM78.75 60V65.625H60V60H78.75ZM112.5 112.5H60V69.375H78.75V78.75C78.7476 79.0898 78.8391 79.4238 79.0145 79.7149C79.1898 80.0061 79.4422 80.2432 79.7437 80.4C80.0393 80.5652 80.3753 80.6441 80.7134 80.6275C81.0516 80.6109 81.3783 80.4996 81.6562 80.3062L86.25 77.25L90.8438 80.3062C91.1257 80.4919 91.4527 80.5981 91.79 80.6134C92.1273 80.6287 92.4625 80.5526 92.7601 80.3932C93.0578 80.2338 93.3069 79.997 93.4811 79.7078C93.6554 79.4185 93.7483 79.0876 93.75 78.75V69.375H112.5V112.5ZM112.5 65.625H93.75V60H112.5V65.625Z" fill="#E81D25"/>
<path d="M47.625 32.25L43.125 35.625C43.125 35.1277 42.9275 34.6508 42.5758 34.2992C42.2242 33.9475 41.7473 33.75 41.25 33.75H26.25C25.7527 33.75 25.2758 33.9475 24.9242 34.2992C24.5725 34.6508 24.375 35.1277 24.375 35.625V50.625C24.375 51.1223 24.5725 51.5992 24.9242 51.9508C25.2758 52.3025 25.7527 52.5 26.25 52.5H41.25C41.7473 52.5 42.2242 52.3025 42.5758 51.9508C42.9275 51.5992 43.125 51.1223 43.125 50.625V40.3125L49.875 35.25L47.625 32.25ZM39.375 38.4375L33.9188 42.525L31.3312 39.9188L28.6687 42.5812L32.4188 46.3312C32.7405 46.6482 33.1651 46.8395 33.6156 46.8704C34.0662 46.9014 34.513 46.77 34.875 46.5L39.375 43.125V48.75H28.125V37.5H39.375V38.4375Z" fill="#E81D25"/>
<path d="M73.125 97.5H65.625C65.1277 97.5 64.6508 97.6975 64.2992 98.0492C63.9475 98.4008 63.75 98.8777 63.75 99.375V106.875C63.75 107.372 63.9475 107.849 64.2992 108.201C64.6508 108.552 65.1277 108.75 65.625 108.75H73.125C73.6223 108.75 74.0992 108.552 74.4508 108.201C74.8025 107.849 75 107.372 75 106.875V99.375C75 98.8777 74.8025 98.4008 74.4508 98.0492C74.0992 97.6975 73.6223 97.5 73.125 97.5ZM71.25 105H67.5V101.25H71.25V105Z" fill="#E81D25"/>
<path d="M78.75 105H93.75V108.75H78.75V105Z" fill="#E81D25"/>
<path d="M78.75 97.5H86.25V101.25H78.75V97.5Z" fill="#E81D25"/>
<path d="M46.875 48.75H95.625V52.5H46.875V48.75Z" fill="#E81D25"/>
<path d="M24.375 58.125H28.125V61.875H24.375V58.125Z" fill="#E81D25"/>
<path d="M31.875 58.125H52.5V61.875H31.875V58.125Z" fill="#E81D25"/>
<path d="M24.375 67.5H28.125V71.25H24.375V67.5Z" fill="#E81D25"/>
<path d="M31.875 67.5H52.5V71.25H31.875V67.5Z" fill="#E81D25"/>
<path d="M24.375 76.875H28.125V80.625H24.375V76.875Z" fill="#E81D25"/>
<path d="M31.875 76.875H52.5V80.625H31.875V76.875Z" fill="#E81D25"/>
<path d="M24.375 86.25H28.125V90H24.375V86.25Z" fill="#E81D25"/>
<path d="M31.875 86.25H52.5V90H31.875V86.25Z" fill="#E81D25"/>
<path d="M24.375 95.625H28.125V99.375H24.375V95.625Z" fill="#E81D25"/>
<path d="M31.875 95.625H52.5V99.375H31.875V95.625Z" fill="#E81D25"/>
<path d="M50.625 18.75H69.375V22.5H50.625V18.75Z" fill="#E81D25"/>
<path d="M60 16.875C62.0711 16.875 63.75 15.1961 63.75 13.125C63.75 11.0539 62.0711 9.375 60 9.375C57.9289 9.375 56.25 11.0539 56.25 13.125C56.25 15.1961 57.9289 16.875 60 16.875Z" fill="#E81D25"/>
</svg>
