<svg width="32" height="32" viewBox="0 0 32 32" fill="none" xmlns="http://www.w3.org/2000/svg">
<path d="M30.2137 24.144L24.1412 20.0943C23.3705 19.5845 22.3375 19.7522 21.7678 20.4797L19.999 22.7541C19.7716 23.0538 19.3584 23.1408 19.0295 22.9581L18.6931 22.7726C17.5776 22.1646 16.1898 21.4077 13.3935 18.6104C10.5972 15.8131 9.83873 14.4242 9.23075 13.3108L9.04625 12.9743C8.86105 12.6455 8.94635 12.2305 9.24621 12.0014L11.519 10.233C12.2462 9.66326 12.4142 8.63057 11.905 7.85971L7.8553 1.78715C7.33345 1.00217 6.28645 0.766522 5.47856 1.25217L2.93924 2.77754C2.14137 3.24661 1.556 4.00628 1.30589 4.89737C0.391481 8.22911 1.07938 13.9792 9.54977 22.4506C16.2878 29.1881 21.3039 30.9999 24.7517 30.9999C25.5451 31.0033 26.3355 30.9001 27.1015 30.693C27.9928 30.4432 28.7526 29.8577 29.2213 29.0596L30.7482 26.5218C31.2346 25.7138 30.9991 24.6661 30.2137 24.144ZM29.8867 26.0088L28.3633 28.5481C28.0268 29.1242 27.4803 29.5477 26.8384 29.7301C23.7627 30.5745 18.3891 29.8751 10.2572 21.7432C2.12526 13.6113 1.42588 8.23813 2.27033 5.1619C2.45289 4.51929 2.87696 3.97212 3.45371 3.635L5.99304 2.11162C6.34358 1.9007 6.798 2.00293 7.02445 2.34357L9.2243 5.64632L11.0707 8.4156C11.2918 8.74997 11.2192 9.19812 10.9037 9.44555L8.63038 11.2139C7.93856 11.7429 7.74099 12.7001 8.16694 13.4597L8.34745 13.7877C8.98643 14.9596 9.78084 16.4175 12.6811 19.3173C15.5814 22.2171 17.0388 23.0116 18.2102 23.6505L18.5387 23.8315C19.2983 24.2574 20.2555 24.0599 20.7845 23.368L22.5529 21.0947C22.8003 20.7794 23.2483 20.7068 23.5828 20.9277L29.6548 24.9774C29.9957 25.2037 30.0979 25.6583 29.8867 26.0088Z" fill="#E81D25" stroke="#E81D25"/>
<path d="M17.9993 6.00184C22.6912 6.00705 26.4934 9.80933 26.4987 14.5012C26.4987 14.7774 26.7225 15.0012 26.9987 15.0012C27.2748 15.0012 27.4986 14.7774 27.4986 14.5012C27.4928 9.2573 23.2433 5.00769 17.9993 5.00195C17.7232 5.00195 17.4994 5.22576 17.4994 5.5019C17.4994 5.77803 17.7232 6.00184 17.9993 6.00184Z" fill="#E81D25" stroke="#E81D25"/>
<path d="M17.9993 9.0016C21.0352 9.00517 23.4954 11.4653 23.4989 14.5012C23.4989 14.7773 23.7228 15.0012 23.9989 15.0012C24.275 15.0012 24.4988 14.7773 24.4988 14.5012C24.4947 10.9133 21.5872 8.00581 17.9993 8.00171C17.7232 8.00171 17.4994 8.22552 17.4994 8.50165C17.4994 8.77778 17.7232 9.0016 17.9993 9.0016Z" fill="#E81D25" stroke="#E81D25"/>
<path d="M17.9993 12.0014C19.3792 12.003 20.4975 13.1212 20.4992 14.5012C20.4992 14.7773 20.723 15.0011 20.9991 15.0011C21.2752 15.0011 21.4991 14.7773 21.4991 14.5012C21.4968 12.5693 19.9313 11.0036 17.9993 11.0015C17.7232 11.0015 17.4994 11.2253 17.4994 11.5014C17.4994 11.7775 17.7232 12.0014 17.9993 12.0014Z" fill="#E81D25" stroke="#E81D25"/>
</svg>
