<svg width="32" height="32" viewBox="0 0 32 32" fill="none" xmlns="http://www.w3.org/2000/svg">
<path d="M26.622 5.56381C24.1791 2.02819 20.3074 0 16.0004 0C11.6935 0 7.82181 2.02819 5.37887 5.56381C2.94793 9.08156 2.38662 13.5351 3.87437 17.4698C4.27231 18.5443 4.90487 19.5882 5.74999 20.5665L15.1486 31.6061C15.3612 31.856 15.6726 32 16.0004 32C16.3282 32 16.6397 31.8561 16.8522 31.6061L26.2482 20.5695C27.0971 19.5856 27.7289 18.5428 28.1235 17.4769C29.6142 13.5351 29.0529 9.08156 26.622 5.56381ZM26.0282 16.6933C25.7239 17.5157 25.2271 18.3288 24.5524 19.1108C24.5506 19.1127 24.5487 19.1146 24.5472 19.1168L16.0004 29.1554L7.44843 19.1105C6.77412 18.3291 6.2773 17.5161 5.96999 16.6859C4.73962 13.4318 5.20656 9.74956 7.21943 6.83638C9.23862 3.91388 12.4394 2.23775 16.0004 2.23775C19.5614 2.23775 22.7618 3.91381 24.7811 6.83638C26.7943 9.74956 27.2616 13.4318 26.0282 16.6933Z" fill="#E81D25"/>
<path d="M16.0004 6.63867C12.5456 6.63867 9.73462 9.4493 9.73462 12.9044C9.73462 16.3595 12.5452 19.1702 16.0004 19.1702C19.4555 19.1702 22.2661 16.3595 22.2661 12.9044C22.2661 9.44967 19.4551 6.63867 16.0004 6.63867ZM16.0004 16.9324C13.7794 16.9324 11.9724 15.1254 11.9724 12.9044C11.9724 10.6834 13.7794 8.87636 16.0004 8.87636C18.2214 8.87636 20.0284 10.6834 20.0284 12.9044C20.0284 15.1254 18.2214 16.9324 16.0004 16.9324Z" fill="#E81D25"/>
</svg>
